<svg xmlns="http://www.w3.org/2000/svg" xmlns:xlink="http://www.w3.org/1999/xlink" width="500" zoomAndPan="magnify" viewBox="0 0 375 374.999991" height="500" preserveAspectRatio="xMidYMid meet" version="1.0"><defs><g/></defs><path fill="#0ea053" d="M 194.785156 153.941406 C 229.34375 138.339844 268.816406 139.144531 303.335938 123.472656 C 318.058594 116.792969 331.199219 107.355469 342.082031 95.421875 C 345.320312 91.871094 348.039062 85.65625 353.1875 84.769531 C 363.839844 82.933594 364.441406 95.476562 365.558594 103 C 367.554688 116.460938 367.765625 130.265625 367.179688 143.835938 C 366.785156 152.96875 367.6875 156.339844 368.671875 165.144531 C 381.277344 277.746094 287.582031 375.308594 174.855469 367.847656 C 157.34375 366.6875 134.441406 362.023438 118.371094 354.945312 C 117.886719 354.734375 117.441406 355.253906 117.667969 354.15625 C 126.523438 338.402344 136.972656 323.40625 149.210938 310.089844 C 152.480469 306.535156 164.308594 294.058594 167.832031 292.460938 C 172.546875 290.324219 184.59375 293.769531 190.390625 294.300781 C 220.972656 297.101562 250.035156 290.421875 276.023438 274.320312 C 329.328125 241.289062 355.847656 174.984375 349.058594 113.542969 C 335.699219 125.476562 321.179688 135.011719 304.523438 141.753906 C 258.109375 160.542969 200.171875 154.292969 165.804688 196.683594 C 151.460938 214.378906 142.046875 243.980469 147.144531 266.613281 C 147.304688 267.324219 146.691406 268.113281 147.921875 267.882812 C 156.964844 259.960938 166.488281 252.398438 176.503906 245.714844 C 221.429688 215.722656 276.035156 203.511719 316.714844 166.894531 C 317.375 166.695312 317.738281 167.007812 317.476562 167.65625 C 316.40625 170.324219 309.636719 178.371094 307.394531 180.882812 C 283.835938 207.253906 249.398438 222.070312 219.285156 239.3125 C 176.273438 263.941406 139.070312 292.898438 112.25 335.265625 C 109.488281 339.628906 105.210938 349.046875 102.339844 352.28125 C 96.058594 359.347656 85.152344 354.117188 87.351562 344.019531 C 88.078125 340.6875 93.910156 331.722656 96.007812 328.335938 C 106.1875 311.894531 118.632812 296.90625 131.894531 282.894531 L 129.542969 265.816406 C 123.046875 271.484375 117.101562 277.707031 111.136719 283.933594 C 110.71875 284.371094 110.445312 284.882812 110.382812 285.496094 L 109.324219 285.179688 L 107.988281 282.347656 C 105.765625 281.886719 87.144531 289.828125 83.96875 291.429688 C 81.53125 292.660156 70.113281 299.246094 69.203125 301.039062 C 68.671875 302.085938 70.828125 303.726562 71.558594 304.410156 C 76.1875 308.75 81.425781 312.484375 85.984375 316.910156 C 83.332031 321.617188 80.542969 326.222656 77.890625 330.9375 C 77.675781 331.324219 78 331.886719 77.058594 331.546875 C 75.089844 330.832031 65.445312 322.4375 63.273438 320.46875 C -24.464844 240.75 -16.101562 103.535156 80.425781 35.128906 C 155.941406 -18.386719 258.058594 -7.082031 321.121094 59.921875 C 323.234375 62.164062 336.882812 77.882812 336.5625 79.542969 L 324.992188 92.296875 L 316.429688 80.921875 L 315.742188 80.972656 C 301.976562 91.65625 285.652344 99.296875 268.816406 103.707031 L 272.964844 118.71875 L 256.363281 122.128906 L 252.242188 108.359375 C 233.453125 112.8125 214.085938 114.457031 194.78125 115.097656 L 194.78125 153.941406 Z M 177.699219 22.902344 C 167.222656 27.289062 158.324219 36.175781 151.3125 44.929688 C 140.074219 58.953125 132.039062 75.148438 125.410156 91.78125 C 142.589844 95.246094 160.125 97.59375 177.699219 97.484375 Z M 194.785156 97.484375 C 210.035156 97.390625 225.988281 96.175781 240.957031 93.179688 C 241.972656 92.976562 246.441406 92.34375 246.519531 91.539062 C 239.929688 75.671875 232.457031 59.910156 221.910156 46.265625 C 214.824219 37.09375 205.613281 27.46875 194.78125 22.902344 L 194.78125 97.488281 Z M 147.15625 23.425781 C 117.4375 30.535156 90.15625 46.398438 68.472656 67.707031 C 80.203125 77.144531 94.476562 82.964844 108.839844 87.128906 C 115.144531 69.34375 124.390625 51.34375 136.078125 36.421875 C 139.597656 31.933594 143.625 27.894531 147.15625 23.425781 Z M 263.152344 87.097656 C 274.804688 84.574219 287.226562 79.363281 297.25 72.839844 C 298.402344 72.089844 304.304688 68.347656 304.023438 67.203125 C 282.167969 46.152344 255.128906 30.121094 225.332031 23.425781 C 242.386719 41.542969 254.625 63.789062 263.15625 87.097656 Z M 90.722656 176.210938 C 91.46875 151.738281 95.339844 127.339844 102.589844 104.003906 C 97.902344 101.710938 92.5625 100.277344 87.632812 98.246094 C 76.628906 93.710938 66.265625 88.238281 56.804688 81.007812 C 34.589844 107.703125 21.898438 141.464844 19.792969 176.210938 Z M 177.699219 115.097656 C 158.027344 114.652344 138.433594 112.378906 119.203125 108.363281 C 113.0625 130.4375 108.347656 153.136719 108.328125 176.214844 L 161.394531 176.214844 L 177.699219 163.007812 Z M 90.722656 193.824219 L 20.3125 193.824219 C 21.523438 228.027344 34.777344 262.183594 56.886719 288.050781 C 70.589844 278.140625 85.878906 270.703125 102.089844 265.785156 C 95.171875 242.453125 91.394531 218.214844 90.722656 193.824219 Z M 146.121094 193.824219 L 108.328125 193.824219 C 108.585938 210.5625 110.671875 227.660156 114.375 243.96875 C 114.886719 246.214844 118.398438 260.816406 119.5 261.09375 L 129.011719 259.058594 C 128.191406 241.585938 131.027344 224.382812 138.265625 208.492188 Z M 300.402344 278.242188 L 316.125 288.046875 C 333.175781 267.179688 344.941406 241.722656 349.578125 215.0625 L 338.410156 235.214844 C 332.414062 244.730469 325.5 253.570312 318.015625 261.945312 L 300.40625 278.242188 Z M 225.332031 346.09375 C 248.464844 341.121094 270.832031 329.714844 289.253906 315.007812 C 291.121094 313.515625 304.277344 302.332031 304.023438 301.308594 C 298.046875 296.460938 291.390625 292.265625 284.121094 289.632812 C 274.804688 295.117188 265.125 299.890625 254.863281 303.390625 C 247.074219 318.945312 237.429688 333.574219 225.332031 346.089844 Z M 177.699219 309.84375 C 174.230469 309.199219 172.867188 310.660156 170.445312 312.683594 C 168.558594 314.261719 155.414062 328.136719 155.421875 329.265625 C 157.566406 332.878906 161.242188 336.203125 164.515625 338.832031 C 168.285156 341.851562 173.085938 345.277344 177.703125 346.613281 L 177.703125 309.839844 Z M 194.785156 311.914062 L 194.785156 346.617188 C 198.835938 345.53125 202.8125 342.65625 206.121094 340.089844 C 216.167969 332.28125 224.933594 321.261719 231.03125 310.105469 C 219.046875 311.382812 206.878906 313.332031 194.785156 311.914062 Z M 194.785156 311.914062 " fill-opacity="1" fill-rule="nonzero"/><g fill="#0ea053" fill-opacity="1"><g transform="translate(348.929953, 202.399981)"><g><path d="M 7.234375 0 L 7.234375 -5.546875 C 7.234375 -6.242188 7.070312 -6.765625 6.75 -7.109375 C 6.4375 -7.453125 5.941406 -7.625 5.265625 -7.625 C 4.367188 -7.625 3.710938 -7.378906 3.296875 -6.890625 C 2.878906 -6.398438 2.671875 -5.597656 2.671875 -4.484375 L 2.671875 0 L 1.375 0 L 1.375 -12.15625 L 2.671875 -12.15625 L 2.671875 -8.484375 C 2.671875 -8.035156 2.648438 -7.664062 2.609375 -7.375 L 2.6875 -7.375 C 2.945312 -7.789062 3.3125 -8.113281 3.78125 -8.34375 C 4.25 -8.582031 4.785156 -8.703125 5.390625 -8.703125 C 6.441406 -8.703125 7.226562 -8.453125 7.75 -7.953125 C 8.269531 -7.460938 8.53125 -6.675781 8.53125 -5.59375 L 8.53125 0 Z M 7.234375 0 "/></g></g></g></svg>